<svg xmlns="http://www.w3.org/2000/svg" width="280.901" height="44.677" viewBox="0 0 280.901 44.677">
  <g id="Grupo_5" data-name="Grupo 5" transform="translate(-189.379 -299.64)">
    <g id="Grupo_2" data-name="Grupo 2" transform="translate(189.379 299.64)">
      <path id="Trazado_1" data-name="Trazado 1" d="M224.508,309.481c-.048-.048-.048-.1-.1-.148l-8.364-9.4h0c-.048-.048-.148-.1-.2-.148-.048,0-.048-.048-.1-.048a.959.959,0,0,0-.345-.1H194.888a5.5,5.5,0,0,0-5.509,5.513V338.8a5.5,5.5,0,0,0,5.509,5.513h24.256a5.5,5.5,0,0,0,5.513-5.513V309.923c0-.1-.052-.245-.052-.342C224.556,309.529,224.556,309.481,224.508,309.481Zm-8.219-6.545,5.412,6.055h-5.412Zm6.545,35.819a3.634,3.634,0,0,1-3.642,3.642h-24.3a3.636,3.636,0,0,1-3.642-3.642V305.1a3.634,3.634,0,0,1,3.642-3.642H214.47v8.46a.934.934,0,0,0,.935.935h7.428Z" transform="translate(-189.379 -299.64)" fill="#fff"/>
      <g id="Grupo_1" data-name="Grupo 1" transform="translate(5.657 9.351)">
        <path id="Trazado_2" data-name="Trazado 2" d="M199.957,302.159h-8.119a.933.933,0,0,0-.935.932.9.9,0,0,0,.935.935h8.119a.934.934,0,0,0,0-1.867Z" transform="translate(-190.903 -302.159)" fill="#e33d38"/>
        <path id="Trazado_3" data-name="Trazado 3" d="M199.957,308.653h-8.119a.934.934,0,1,0,0,1.867h8.119a.932.932,0,0,0,.932-.932A1,1,0,0,0,199.957,308.653Z" transform="translate(-190.903 -284.546)" fill="#e33d38"/>
        <path id="Trazado_4" data-name="Trazado 4" d="M213.5,303.8h-21.65a.935.935,0,1,0,0,1.871H213.5a.933.933,0,0,0,.932-.935A1,1,0,0,0,213.5,303.8Z" transform="translate(-190.868 -297.703)" fill="#e33d38"/>
        <path id="Trazado_5" data-name="Trazado 5" d="M213.5,305.021h-21.65a.935.935,0,1,0,0,1.871H213.5a.933.933,0,0,0,.932-.935A1,1,0,0,0,213.5,305.021Z" transform="translate(-190.868 -294.397)" fill="#e33d38"/>
        <path id="Trazado_6" data-name="Trazado 6" d="M213.5,306.241h-21.65a.934.934,0,1,0,0,1.867H213.5a.932.932,0,0,0,.932-.932A1,1,0,0,0,213.5,306.241Z" transform="translate(-190.868 -291.088)" fill="#e33d38"/>
        <path id="Trazado_7" data-name="Trazado 7" d="M213.5,307.46h-21.65a.935.935,0,1,0,0,1.871H213.5a.933.933,0,0,0,.932-.935A1,1,0,0,0,213.5,307.46Z" transform="translate(-190.868 -287.781)" fill="#e33d38"/>
      </g>
    </g>
    <g id="Grupo_3" data-name="Grupo 3" transform="translate(236.435 300.791)">
      <path id="Trazado_8" data-name="Trazado 8" d="M202.055,302.715a1.019,1.019,0,0,1,.256-.735.9.9,0,0,1,.613-.29h21.316a.964.964,0,0,1,.765.29,1.109,1.109,0,0,1,.26.776v5.509a1.157,1.157,0,0,1-.271.724.924.924,0,0,1-.78.341H210.671v6.9h10a1.115,1.115,0,0,1,.716.234.913.913,0,0,1,.286.746v5.323a1.2,1.2,0,0,1-.256.724.815.815,0,0,1-.7.345H210.671v10.2c0,.639-.338.958-1.021.958h-6.793a.84.84,0,0,1-.8-.936Z" transform="translate(-202.055 -295.231)" fill="#fff"/>
      <path id="Trazado_9" data-name="Trazado 9" d="M209.536,301.661a1.786,1.786,0,0,1,.4-1.322,1.732,1.732,0,0,1,1.247-.39h5.167a1.931,1.931,0,0,1,1.258.39,1.606,1.606,0,0,1,.479,1.322v4.347a1.592,1.592,0,0,1-.122.579,2.464,2.464,0,0,1-.345.6,1.88,1.88,0,0,1-.546.479,1.4,1.4,0,0,1-.724.189h-5.167q-1.648,0-1.648-1.849Zm0,11.274a1.928,1.928,0,0,1,.4-1.225,1.486,1.486,0,0,1,1.247-.512h5.1a1.59,1.59,0,0,1,.579.123,2.034,2.034,0,0,1,.583.356,2.394,2.394,0,0,1,.453.546,1.346,1.346,0,0,1,.189.713V337.77a1.663,1.663,0,0,1-.468,1.281,1.893,1.893,0,0,1-1.336.434h-5.1q-1.648,0-1.648-1.715Z" transform="translate(-181.765 -299.95)" fill="#fff"/>
      <path id="Trazado_10" data-name="Trazado 10" d="M213.281,302.411a1.981,1.981,0,0,1,.353-1.2,1.422,1.422,0,0,1,1.229-.49h5.457a1.118,1.118,0,0,1,.468.119,1.74,1.74,0,0,1,.457.349,1.931,1.931,0,0,1,.353.538,1.58,1.58,0,0,1,.148.687v33.276a1.642,1.642,0,0,1-.479,1.281,1.776,1.776,0,0,1-1.236.434h-5.167a1.514,1.514,0,0,1-1.229-.434,1.98,1.98,0,0,1-.353-1.281Z" transform="translate(-171.607 -297.867)" fill="#fff"/>
      <path id="Trazado_11" data-name="Trazado 11" d="M241.35,328.207a14.837,14.837,0,0,1-4.41,2.818,13.442,13.442,0,0,1-5.19,1.013,15.147,15.147,0,0,1-10.535-4.2,14.8,14.8,0,0,1-3.252-4.644,14,14,0,0,1-1.2-5.813,15.059,15.059,0,0,1,1.838-7.239,14.591,14.591,0,0,1,2.138-2.951,13.531,13.531,0,0,1,2.818-2.305,13.887,13.887,0,0,1,3.386-1.492,13.647,13.647,0,0,1,3.853-.535,13.143,13.143,0,0,1,3.586.49,13.952,13.952,0,0,1,3.263,1.381,14.168,14.168,0,0,1,2.8,2.138,14.437,14.437,0,0,1,2.183,2.729,13.161,13.161,0,0,1,1.414,3.163,12.06,12.06,0,0,1,.5,3.464q0,1.158-.033,1.893a2.14,2.14,0,0,1-.345,1.169,1.679,1.679,0,0,1-1.036.6,10.139,10.139,0,0,1-2.127.167H224.957a5.537,5.537,0,0,0,.9,2.383,5.663,5.663,0,0,0,1.57,1.526,6.275,6.275,0,0,0,1.893.813,7.98,7.98,0,0,0,1.893.245,8.507,8.507,0,0,0,1.648-.167,11.827,11.827,0,0,0,1.637-.445,9.271,9.271,0,0,0,1.448-.646,4.818,4.818,0,0,0,1.058-.768,4.621,4.621,0,0,1,.612-.434,1.091,1.091,0,0,1,.546-.145,1.063,1.063,0,0,1,.59.2,4.647,4.647,0,0,1,.679.579l2.361,2.673a1.485,1.485,0,0,1,.312.523,1.727,1.727,0,0,1,.067.475,1.238,1.238,0,0,1-.245.772A2.8,2.8,0,0,1,241.35,328.207Zm-10.714-18.554a4.262,4.262,0,0,0-1.682.345,6.348,6.348,0,0,0-1.526.924,7.951,7.951,0,0,0-1.281,1.314,8.063,8.063,0,0,0-.924,1.492h11.382a13.125,13.125,0,0,0-1.013-1.6,6.859,6.859,0,0,0-1.247-1.292,5.384,5.384,0,0,0-1.6-.869A6.443,6.443,0,0,0,230.636,309.653Z" transform="translate(-162.172 -292.057)" fill="#fff"/>
      <path id="Trazado_12" data-name="Trazado 12" d="M231.3,324.6c.252.208.579.486.969.835a13.472,13.472,0,0,0,1.348,1.036,11.426,11.426,0,0,0,2.25,1.181,6.534,6.534,0,0,0,2.342.423,6.068,6.068,0,0,0,1.9-.256,3.21,3.21,0,0,0,1.214-.679,2.345,2.345,0,0,0,.635-.98,3.523,3.523,0,0,0,.189-1.177,1.751,1.751,0,0,0-.52-1.236,5.446,5.446,0,0,0-1.284-.969,10.822,10.822,0,0,0-1.578-.72c-.549-.2-1.028-.367-1.429-.5a32.588,32.588,0,0,1-4.677-2.016,14.287,14.287,0,0,1-3.337-2.405,8.843,8.843,0,0,1-2-2.914,9.013,9.013,0,0,1-.672-3.549,8.44,8.44,0,0,1,.835-3.764,8.259,8.259,0,0,1,2.387-2.892,11.21,11.21,0,0,1,3.727-1.856,16.913,16.913,0,0,1,4.878-.657,16.243,16.243,0,0,1,3.887.457,14.886,14.886,0,0,1,3.668,1.459q.752.445,1.433.924c.453.319.85.627,1.2.924a5.789,5.789,0,0,1,.809.846,1.2,1.2,0,0,1,.3.691,1.032,1.032,0,0,1-.145.535,3.389,3.389,0,0,1-.434.557l-3.408,3.63a1.09,1.09,0,0,1-.754.379.976.976,0,0,1-.572-.178c-.171-.119-.356-.267-.568-.446l-.2-.178c-.3-.253-.627-.512-.987-.78a9.125,9.125,0,0,0-1.173-.724,7.848,7.848,0,0,0-1.314-.535,4.766,4.766,0,0,0-1.4-.212,7.409,7.409,0,0,0-1.381.123,3.861,3.861,0,0,0-1.136.39,2.12,2.12,0,0,0-.776.7,1.838,1.838,0,0,0-.293,1.058,1.869,1.869,0,0,0,.312,1.08,3.184,3.184,0,0,0,.935.846,8.653,8.653,0,0,0,1.548.735q.924.345,2.149.746,2.361.779,4.354,1.637a14.89,14.89,0,0,1,3.445,2.023,8.46,8.46,0,0,1,2.257,2.8,8.743,8.743,0,0,1,.813,3.942,9.752,9.752,0,0,1-1,4.443,10.159,10.159,0,0,1-2.751,3.4,12.915,12.915,0,0,1-4.109,2.172,16.313,16.313,0,0,1-5.078.768,14.429,14.429,0,0,1-5.034-.917,19.319,19.319,0,0,1-4.611-2.458,11.843,11.843,0,0,1-1.5-1.273c-.4-.416-.731-.75-.969-1l-.063-.07c-.019-.03-.033-.048-.048-.052l-.044-.033a.116.116,0,0,0-.045-.059l-.045-.033a1.54,1.54,0,0,1-.509-.895,1.27,1.27,0,0,1,.509-.846l3.853-3.675a1.449,1.449,0,0,1,.757-.334.818.818,0,0,1,.423.134A4.131,4.131,0,0,1,231.3,324.6Z" transform="translate(-139.207 -295.752)" fill="#e33d38"/>
      <path id="Trazado_13" data-name="Trazado 13" d="M241.918,312.1a5.981,5.981,0,0,1,1.169-1.233,8.665,8.665,0,0,1,1.715-1.088,10.781,10.781,0,0,1,2.149-.78,10.073,10.073,0,0,1,2.495-.3,9.312,9.312,0,0,1,4.4.976,8.732,8.732,0,0,1,3.074,2.665,11.738,11.738,0,0,1,1.8,3.946,19,19,0,0,1,.59,4.818V335.7a1.938,1.938,0,0,1-.367,1.281,1.45,1.45,0,0,1-1.169.434h-5.141a1.987,1.987,0,0,1-1.314-.323,1.685,1.685,0,0,1-.36-1.258V321.106a4.325,4.325,0,0,0-.367-1.782,4.694,4.694,0,0,0-.987-1.437,4.6,4.6,0,0,0-3.23-1.3,4.037,4.037,0,0,0-1.574.323,4.459,4.459,0,0,0-1.377.913,5.1,5.1,0,0,0-1.028,1.411,4.92,4.92,0,0,0-.479,1.83v14.7a2.106,2.106,0,0,1-.145.757,1.218,1.218,0,0,1-.431.579,2.087,2.087,0,0,1-.546.245,2.384,2.384,0,0,1-.594.067h-5.034a1.563,1.563,0,0,1-1.8-1.715V302.408a1.754,1.754,0,0,1,.419-1.225,1.794,1.794,0,0,1,1.381-.468H240.2a2.355,2.355,0,0,1,1.14.356,1.237,1.237,0,0,1,.431.579,2.017,2.017,0,0,1,.145.716Z" transform="translate(-117.124 -297.875)" fill="#e33d38"/>
      <path id="Trazado_14" data-name="Trazado 14" d="M271.528,329.945a1.988,1.988,0,0,1-.134.724,1.748,1.748,0,0,1-1.025.858,3.02,3.02,0,0,1-.579.067H265.4a1.969,1.969,0,0,1-.757-.123,1.167,1.167,0,0,1-.468-.345,2.006,2.006,0,0,1-.3-.546q-.122-.323-.256-.7l-.289-1a13,13,0,0,1-1.37,1.18,10.608,10.608,0,0,1-1.693,1.036,10.494,10.494,0,0,1-1.982.735,8.582,8.582,0,0,1-2.194.278,14.574,14.574,0,0,1-3.887-.512,14.293,14.293,0,0,1-6.4-3.731,14.521,14.521,0,0,1-3.72-6.459,14.9,14.9,0,0,1-.512-3.931,14.584,14.584,0,0,1,4.232-10.391,14.423,14.423,0,0,1,10.29-4.221,10.136,10.136,0,0,1,2.573.312,9.809,9.809,0,0,1,2.183.846,8.634,8.634,0,0,1,1.793,1.281,9.91,9.91,0,0,1,1.4,1.615l.646-2.027q.223-.557.368-.9a1.6,1.6,0,0,1,.312-.512.8.8,0,0,1,.412-.223,3.286,3.286,0,0,1,.69-.056h3.319a3.01,3.01,0,0,1,.579.067,1.11,1.11,0,0,1,.579.312,1.425,1.425,0,0,1,.445.557,1.794,1.794,0,0,1,.134.713Zm-21.939-12.473a8.1,8.1,0,0,0,.457,2.747,6.51,6.51,0,0,0,1.3,2.22,6.188,6.188,0,0,0,2.038,1.481,6.263,6.263,0,0,0,2.639.546,7,7,0,0,0,2.773-.546,7.084,7.084,0,0,0,2.227-1.481,6.693,6.693,0,0,0,1.481-2.22,7.25,7.25,0,0,0,0-5.464,7.2,7.2,0,0,0-1.481-2.272,7.019,7.019,0,0,0-2.227-1.548,6.763,6.763,0,0,0-2.773-.568,6.055,6.055,0,0,0-2.639.568,6.165,6.165,0,0,0-2.038,1.548,7.014,7.014,0,0,0-1.3,2.272A8.094,8.094,0,0,0,249.588,317.471Z" transform="translate(-94.881 -292.057)" fill="#e33d38"/>
      <path id="Trazado_15" data-name="Trazado 15" d="M251.081,304.954a1.578,1.578,0,0,1,.156-.735,1.428,1.428,0,0,1,.408-.512,1.83,1.83,0,0,1,.579-.3,2.141,2.141,0,0,1,.638-.1h3.36a1.219,1.219,0,0,1,.895.334,2.929,2.929,0,0,1,.564.846,8.078,8.078,0,0,1,.412,1.136,11.2,11.2,0,0,0,.423,1.2c.449-.49.887-.973,1.325-1.448a10.093,10.093,0,0,1,1.414-1.27,7.127,7.127,0,0,1,1.663-.906,5.784,5.784,0,0,1,2.057-.342,11.664,11.664,0,0,1,2.149.178,9.282,9.282,0,0,1,1.793.524,10.7,10.7,0,0,1,1.682.876c.557.36,1.162.772,1.815,1.251a1.574,1.574,0,0,1,.958,1.314,2.325,2.325,0,0,1-.379,1.136l-2.027,3.452a1.766,1.766,0,0,1-1.492.869,2.526,2.526,0,0,1-1-.245,7.041,7.041,0,0,0-1.949-1.392,5.345,5.345,0,0,0-2.261-.457,4.371,4.371,0,0,0-1.526.245,4.162,4.162,0,0,0-1.192.691,6.308,6.308,0,0,0-1,1.069q-.468.624-.935,1.381v16.126a1.811,1.811,0,0,1-.408,1.281,1.841,1.841,0,0,1-1.374.434h-5.011a1.523,1.523,0,0,1-1.734-1.715Z" transform="translate(-69.085 -292.057)" fill="#e33d38"/>
      <path id="Trazado_16" data-name="Trazado 16" d="M282.156,328.207a14.837,14.837,0,0,1-4.41,2.818,13.442,13.442,0,0,1-5.19,1.013,15.147,15.147,0,0,1-10.535-4.2,14.8,14.8,0,0,1-3.252-4.644,14,14,0,0,1-1.2-5.813,15.057,15.057,0,0,1,1.838-7.239,14.6,14.6,0,0,1,2.138-2.951,13.533,13.533,0,0,1,2.818-2.305,13.887,13.887,0,0,1,3.386-1.492,13.647,13.647,0,0,1,3.853-.535,13.143,13.143,0,0,1,3.586.49,13.953,13.953,0,0,1,3.263,1.381,14.169,14.169,0,0,1,2.8,2.138,14.44,14.44,0,0,1,2.183,2.729,13.161,13.161,0,0,1,1.414,3.163,12.065,12.065,0,0,1,.5,3.464q0,1.158-.033,1.893a2.14,2.14,0,0,1-.345,1.169,1.679,1.679,0,0,1-1.036.6,10.139,10.139,0,0,1-2.127.167H265.763a5.537,5.537,0,0,0,.9,2.383,5.664,5.664,0,0,0,1.57,1.526,6.274,6.274,0,0,0,1.893.813,7.979,7.979,0,0,0,1.893.245,8.5,8.5,0,0,0,1.648-.167,11.824,11.824,0,0,0,1.637-.445,9.265,9.265,0,0,0,1.448-.646,4.817,4.817,0,0,0,1.058-.768,4.629,4.629,0,0,1,.613-.434,1.091,1.091,0,0,1,.546-.145,1.063,1.063,0,0,1,.59.2,4.647,4.647,0,0,1,.679.579l2.361,2.673a1.488,1.488,0,0,1,.312.523,1.727,1.727,0,0,1,.067.475,1.239,1.239,0,0,1-.245.772A2.8,2.8,0,0,1,282.156,328.207Zm-10.714-18.554a4.262,4.262,0,0,0-1.682.345,6.344,6.344,0,0,0-1.526.924,7.949,7.949,0,0,0-1.281,1.314,8.063,8.063,0,0,0-.924,1.492h11.382a13.124,13.124,0,0,0-1.013-1.6,6.869,6.869,0,0,0-1.247-1.292,5.386,5.386,0,0,0-1.6-.869A6.444,6.444,0,0,0,271.442,309.653Z" transform="translate(-51.496 -292.057)" fill="#e33d38"/>
    </g>
  </g>
</svg>
