<svg xmlns="http://www.w3.org/2000/svg" width="26.366" height="30.97" viewBox="0 0 26.366 30.97">
  <g id="upload_1_" data-name="upload (1)" transform="translate(-15.5 -13.6)">
    <path id="Trazado_20" data-name="Trazado 20" d="M31.11,22.1a1.17,1.17,0,0,0,.787-.315l4.565-4.25V33.552a1.181,1.181,0,1,0,2.361,0V17.535l4.565,4.25A1.169,1.169,0,1,0,45,20.093l-6.572-6.139c-.039-.039-.039-.039-.079-.039l-.079-.079-.079-.079a.137.137,0,0,1-.079-.039c-.039,0-.079-.039-.118-.039s-.039,0-.079-.039c-.079,0-.157-.039-.236-.039a.5.5,0,0,0-.236.039c-.039,0-.039,0-.079.039-.039,0-.079.039-.118.039a.137.137,0,0,0-.079.039c-.039,0-.079.039-.118.039-.039.039-.079.039-.079.079-.039,0-.039.039-.079.039l-6.572,6.139a1.141,1.141,0,0,0-.039,1.653A.989.989,0,0,0,31.11,22.1Z" transform="translate(-8.763)" fill="#e33d38"/>
    <path id="Trazado_21" data-name="Trazado 21" d="M40.685,39.3h-6.3a1.181,1.181,0,1,0,0,2.361H39.5V57.8H17.861V41.661h5.116a1.181,1.181,0,1,0,0-2.361h-6.3A1.159,1.159,0,0,0,15.5,40.481v18.5a1.159,1.159,0,0,0,1.181,1.181h24a1.159,1.159,0,0,0,1.181-1.181v-18.5A1.159,1.159,0,0,0,40.685,39.3Z" transform="translate(0 -15.586)" fill="#e33d38"/>
  </g>
</svg>
